<?xml version="1.0" encoding="UTF-8"?><svg id="b" xmlns="http://www.w3.org/2000/svg" viewBox="0 0 208.15 208.15"><g id="c"><path d="M104.07,0c57.39,0,104.07,46.69,104.07,104.07s-46.69,104.07-104.07,104.07S0,161.46,0,104.07,46.69,0,104.07,0ZM104.07,199.52c52.63,0,95.44-42.82,95.44-95.44S156.7,8.63,104.07,8.63,8.63,51.45,8.63,104.07s42.82,95.44,95.44,95.44Z" fill="#003d6b" stroke-width="0"/><path d="M104.07,8.63C51.45,8.63,8.63,51.45,8.63,104.07s42.82,95.44,95.44,95.44v8.63C46.69,208.15,0,161.46,0,104.07S46.69,0,104.07,0v8.63Z" fill="#d62828" stroke-width="0"/><path d="M81.65,100.69c3.97,1.94,7.04,4.62,9.21,8.02,2.16,3.4,3.25,7.22,3.25,11.46,0,4.68-1.15,8.92-3.45,12.72-2.3,3.8-5.46,6.78-9.47,8.95-4.02,2.17-8.5,3.25-13.45,3.25-2.92,0-6.1-.13-9.54-.4-1.24-.09-2.7-.18-4.37-.27-1.68-.09-3.54-.13-5.57-.13l-9.01.13c-1.59.09-3.84.13-6.76.13-.18,0-.27-.27-.27-.79s.09-.79.27-.79c3.36,0,5.83-.24,7.42-.73,1.59-.49,2.69-1.35,3.31-2.58.62-1.24.93-3.18.93-5.83v-61.35c0-2.65-.29-4.59-.86-5.83-.58-1.24-1.66-2.1-3.25-2.58-1.59-.48-4.02-.73-7.29-.73-.26,0-.4-.26-.4-.79s.13-.79.4-.79l6.49.13c3.71.18,6.71.26,9.01.26,1.59,0,3.07-.04,4.44-.13,1.37-.09,2.54-.18,3.51-.26,2.83-.26,5.39-.4,7.69-.4,7.42,0,12.99,1.61,16.7,4.84,3.71,3.23,5.57,7.44,5.57,12.66s-1.79,9.21-5.37,12.79c-3.58,3.58-8.33,6.12-14.25,7.62l1.46-1.46c5.12,0,9.67.97,13.65,2.92ZM55.81,63.86c-1.06.35-1.86,1.19-2.38,2.52-.53,1.33-.8,3.45-.8,6.36v25.97l-4.24-1.06c3.8.27,7.2.4,10.2.4,6.45,0,11.22-1.66,14.31-4.97,3.09-3.31,4.64-7.71,4.64-13.19,0-4.95-1.35-8.94-4.04-11.99-2.7-3.05-6.87-4.57-12.52-4.57-2.38,0-4.11.18-5.17.53ZM80.12,137.73c3.13-3.31,4.7-8.06,4.7-14.25,0-6.71-1.97-12.15-5.9-16.3-3.93-4.15-9.34-6.27-16.23-6.36-5.04-.18-9.67.05-13.91.66l3.84-1.46v33.79c0,2.3.33,4.06.99,5.3.66,1.24,1.94,2.14,3.84,2.72,1.9.58,4.66.86,8.28.86,6.45,0,11.24-1.66,14.38-4.97Z" fill="#000" stroke-width="0"/><path d="M104.97,150.58c2.52-2.42,4.34-4.58,5.44-6.47,1.1-1.89,1.66-3.79,1.66-5.68,0-2.1-.64-3.83-1.93-5.17-1.29-1.34-2.96-2.01-5.01-2.01-4.16,0-7.15,3.26-9,9.79,0,.05-.11.08-.32.08-.47,0-.68-.1-.63-.32l3.08-11.99c0-.1.1-.16.32-.16.16,0,.3.04.43.12.13.08.17.15.12.2-.05.21-.08.5-.08.87,0,.84.39,1.26,1.18,1.26.47,0,1.26-.18,2.37-.55,2.16-.68,4.08-1.03,5.76-1.03,2.68,0,4.8.72,6.35,2.17,1.55,1.45,2.33,3.33,2.33,5.64,0,1.89-.59,3.76-1.78,5.6-1.18,1.84-2.92,3.8-5.21,5.88-2.29,2.08-5.48,4.67-9.59,7.77-.21.16-.28.29-.2.39.08.11.25.16.51.16,5.79,0,9.81-.08,12.07-.24,2.26-.16,3.89-.58,4.89-1.26,1-.68,1.68-1.89,2.05-3.63.05-.1.22-.14.51-.12.29.03.43.09.43.2l-1.18,8.05c0,.21-.07.41-.2.59-.13.19-.3.28-.51.28h-24.07c-.26,0-.47-.14-.63-.43-.16-.29-.13-.54.08-.75,4.63-3.73,8.21-6.81,10.73-9.23Z" fill="#000" stroke-width="0"/><path d="M115.35,91.33c1.99-8.86,5.97-16.18,11.93-21.95,5.96-5.77,13.53-8.66,22.7-8.66,8.56,0,15.76,2.41,21.62,7.22,5.85,4.81,9.8,11.62,11.84,20.4,2,8.64,1.98,17.37-.06,26.19-2.04,8.83-6.06,16.13-12.06,21.9-6,5.77-13.55,8.66-22.64,8.66-8.48,0-15.65-2.41-21.51-7.22-5.86-4.81-9.79-11.58-11.81-20.29-2-8.64-2.01-17.39-.01-26.25ZM134.66,71.04c-4.11,5.5-6.8,12.63-8.05,21.38-1.26,8.75-.84,17.64,1.25,26.65,1.72,7.41,4.52,13.26,8.42,17.54,3.9,4.28,8.21,6.42,12.95,6.42,5.73,0,10.65-2.75,14.77-8.25,4.11-5.5,6.8-12.63,8.06-21.38,1.26-8.75.84-17.63-1.25-26.65-1.72-7.41-4.53-13.26-8.42-17.54-3.9-4.28-8.21-6.42-12.95-6.42-5.73,0-10.65,2.75-14.77,8.25Z" fill="#000" stroke-width="0"/></g></svg>