<?xml version="1.0" encoding="UTF-8"?><svg id="b" xmlns="http://www.w3.org/2000/svg" viewBox="0 0 522.34 208.15"><g id="c"><path d="M265.21,74.37c0,3.79-1.08,6.88-3.22,9.26-2.14,2.38-5.07,3.57-8.79,3.56l-17.95-.03.09-59.7,16.21-.07c3.78,0,7.02,1.36,9.7,4.05,2.68,2.69,4.02,5.94,4.01,9.73v7.52c-.01,1.65-.51,3.42-1.48,5.31-1.04,2.08-2.23,3.42-3.58,4.03,1.4.67,2.59,1.9,3.57,3.67.97,1.78,1.46,3.49,1.46,5.14v7.52ZM256.06,71.91v-3.57c.01-4.52-1.06-6.78-3.22-6.78h-8.4s-.03,17.93-.03,17.93l6,.1c2.28,0,3.85-.76,4.71-2.28.62-1.16.93-2.96.93-5.4ZM256.1,46.23v-2.94c0-3.01-.36-5-1.09-5.98-.98-1.23-3.01-1.84-6.09-1.85h-4.43s-.03,18.58-.03,18.58c2.95.07,4.49.1,4.61.1,2.83,0,4.74-.64,5.73-1.92.86-1.04,1.3-3.03,1.3-5.98Z" fill="#000" stroke-width="0"/><path d="M278.74,87.23h-9.52s.09-59.53.09-59.53l9.52.1-.09,59.42Z" fill="#000" stroke-width="0"/><path d="M311.52,87.28h-9.71s-9.57-32.44-9.57-32.44l-.05,32.41h-8.79s-.19-59.44-.19-59.44h9.74s9.8,33.24,9.8,33.24l.05-33.21h8.79s-.09,59.43-.09,59.43Z" fill="#000" stroke-width="0"/><path d="M345.6,74.44c0,3.78-1.35,7.01-4.04,9.69-2.69,2.68-5.93,4.01-9.71,4.01h-2.38c-3.79,0-7.02-1.35-9.7-4.04-2.68-2.69-4.02-5.92-4.01-9.7l.05-34.01c0-3.78,1.35-7.01,4.04-9.69,2.69-2.68,5.93-4.01,9.71-4.01h2.38c3.78,0,7.02,1.36,9.7,4.04,2.68,2.69,4.02,5.92,4.01,9.7l-.05,34.01ZM336.45,71.97l.04-29.36c0-2.37-.24-4.1-.72-5.2-.79-1.64-2.23-2.46-4.3-2.47-4.33,0-6.5,2.54-6.51,7.65l-.04,29.36c0,5.11,1.97,7.66,5.94,7.67,3.72,0,5.59-2.54,5.6-7.65Z" fill="#000" stroke-width="0"/><path d="M394.01,87.4h-9.52s.04-30.32.04-30.32l-8.28,30.29h-9.52s-7.46-30.97-7.46-30.97l-.04,30.95h-9.52s.09-59.44.09-59.44l10.16.02,12.11,42.18,11.62-42.14,10.43.02-.09,59.42Z" fill="#000" stroke-width="0"/><path d="M408.48,87.42h-9.52s.09-59.53.09-59.53l9.52.1-.09,59.42Z" fill="#000" stroke-width="0"/><path d="M261.36,149.94c0,3.78-1.35,7.01-4.04,9.69-2.69,2.68-5.93,4.01-9.71,4.01h-2.38c-3.79,0-7.02-1.35-9.7-4.04-2.68-2.69-4.02-5.92-4.01-9.7l.05-34.01c0-3.78,1.35-7.01,4.04-9.69,2.69-2.68,5.93-4.01,9.71-4.01h2.38c3.78,0,7.02,1.36,9.7,4.04,2.68,2.69,4.02,5.92,4.01,9.7l-.05,34.01ZM252.21,147.46l.04-29.36c0-2.37-.24-4.1-.73-5.2-.79-1.64-2.23-2.47-4.3-2.47-4.33,0-6.5,2.54-6.51,7.65l-.04,29.36c0,5.11,1.97,7.66,5.94,7.67,3.72,0,5.59-2.54,5.6-7.65Z" fill="#000" stroke-width="0"/><path d="M294.26,131.75c0,3.85-1.06,6.94-3.17,9.29-2.11,2.35-5.06,3.52-8.84,3.51h-8.42s-.03,18.3-.03,18.3h-9.52s.09-60.53.09-60.53l16.21-.07c3.78,0,7.02,1.35,9.7,4.04,2.68,2.69,4.02,5.93,4.01,9.71l-.02,15.75ZM285.11,129.26l.02-11.17c0-2.99-.36-4.97-1.08-5.95-.97-1.22-2.97-1.84-5.99-1.84h-4.18s-.04,26.55-.04,26.55l5.68.1c2.26,0,3.81-.76,4.67-2.28.61-1.1.92-2.9.92-5.4Z" fill="#000" stroke-width="0"/><path d="M327.47,150.03c0,3.78-1.35,7.01-4.04,9.69-2.69,2.68-5.93,4.01-9.71,4.01h-2.38c-3.79,0-7.02-1.35-9.7-4.04-2.68-2.69-4.02-5.92-4.01-9.7l.05-34.01c0-3.78,1.35-7.01,4.04-9.69,2.69-2.68,5.93-4.01,9.71-4.01h2.38c3.78,0,7.02,1.36,9.7,4.04,2.68,2.69,4.02,5.92,4.01,9.7l-.05,34.01ZM318.32,147.56l.04-29.36c0-2.37-.24-4.1-.72-5.2-.79-1.64-2.23-2.47-4.3-2.47-4.33,0-6.5,2.54-6.51,7.65l-.04,29.36c0,5.11,1.97,7.66,5.94,7.67,3.72,0,5.59-2.54,5.6-7.65Z" fill="#000" stroke-width="0"/><path d="M360.47,120.03h-9.16c0-2.92-.27-5.03-.81-6.36-.91-2.06-2.62-3.09-5.12-3.09-3.72,0-5.59,2.61-5.6,7.85,0,3.41.24,5.85.72,7.31.92,2.68,2.66,4.03,5.24,4.03,3.86,0,7.28,1.34,10.25,3.99,2.97,2.66,4.45,5.87,4.45,9.65v7.49c-.02,3.78-1.37,7.01-4.07,9.68-2.7,2.68-5.94,4.01-9.74,4.01h-2.39c-3.8,0-7.04-1.36-9.73-4.05-2.69-2.69-4.03-5.93-4.03-9.71v-3.94s9.16.01,9.16.01c-.07,6.29,1.91,9.43,5.94,9.44,2.32,0,3.91-.85,4.76-2.55.55-1.16.83-3.04.83-5.67,0-6.7-1.93-10.06-5.83-10.06-3.89,0-7.34-1.32-10.34-3.94-3-2.63-4.5-5.86-4.49-9.7v-8.41c.02-3.78,1.37-7.01,4.07-9.68,2.7-2.68,5.94-4.01,9.74-4.01h2.39c3.8,0,7.04,1.36,9.73,4.05,2.69,2.69,4.03,5.93,4.03,9.71v3.94Z" fill="#000" stroke-width="0"/><path d="M373.32,162.99h-9.52s.09-59.53.09-59.53l9.52.1-.09,59.42Z" fill="#000" stroke-width="0"/><path d="M406.94,150.13c0,3.79-1.35,7.02-4.04,9.7-2.69,2.68-5.93,4.02-9.71,4.01h-2.38c-3.79,0-7.02-1.35-9.7-4.04-2.68-2.69-4.02-5.92-4.01-9.7l.05-34.01c0-3.78,1.35-7.01,4.04-9.69,2.69-2.68,5.93-4.01,9.71-4.01h2.38c3.78,0,7.02,1.36,9.7,4.05,2.68,2.69,4.02,5.93,4.01,9.71v9.43s-8.99-.01-8.99-.01c0-.54,0-1.44,0-2.68,0-1.24,0-2.17,0-2.78,0-6.31-2.03-9.47-6.12-9.47-3.72,0-5.59,2.55-5.6,7.65l-.04,29.36c0,5.11,2,7.66,6.04,7.67,3.78,0,5.68-2.56,5.68-7.68v-7.97s8.98.01,8.98.01l-.02,10.44Z" fill="#000" stroke-width="0"/><path d="M419.83,163.06h-9.52s.09-59.53.09-59.53l9.52.1-.09,59.42Z" fill="#000" stroke-width="0"/><path d="M454,150.22c0,3.78-1.35,7.01-4.04,9.69-2.69,2.68-5.93,4.01-9.71,4.01h-2.38c-3.79,0-7.02-1.35-9.7-4.04-2.68-2.69-4.02-5.92-4.01-9.7l.05-34.01c0-3.78,1.35-7.01,4.04-9.69,2.69-2.68,5.93-4.01,9.71-4.01h2.38c3.78,0,7.02,1.36,9.7,4.04,2.68,2.69,4.02,5.92,4.01,9.7l-.05,34.01ZM444.84,147.75l.04-29.36c0-2.37-.24-4.1-.72-5.2-.79-1.64-2.23-2.47-4.3-2.47-4.33,0-6.5,2.54-6.51,7.65l-.04,29.36c0,5.11,1.97,7.66,5.94,7.67,3.72,0,5.59-2.54,5.6-7.65Z" fill="#000" stroke-width="0"/><path d="M485.93,163.16h-9.71s-9.57-32.44-9.57-32.44l-.05,32.41h-8.79s-.19-59.44-.19-59.44h9.74s9.8,33.24,9.8,33.24l.05-33.21h8.79s-.09,59.43-.09,59.43Z" fill="#000" stroke-width="0"/><path d="M519.69,120.26h-9.16c0-2.92-.27-5.03-.81-6.36-.91-2.06-2.62-3.09-5.12-3.09-3.72,0-5.59,2.61-5.6,7.85,0,3.41.24,5.85.72,7.31.92,2.68,2.66,4.03,5.24,4.03,3.86,0,7.28,1.34,10.25,3.99,2.97,2.66,4.45,5.87,4.45,9.65v7.49c-.02,3.78-1.37,7.01-4.07,9.68-2.7,2.68-5.94,4.01-9.74,4.01h-2.39c-3.8,0-7.04-1.36-9.73-4.05-2.69-2.69-4.03-5.93-4.03-9.71v-3.94s9.16.01,9.16.01c-.07,6.29,1.91,9.43,5.94,9.44,2.32,0,3.91-.85,4.76-2.55.55-1.16.83-3.04.83-5.67,0-6.7-1.93-10.06-5.83-10.06-3.89,0-7.34-1.32-10.34-3.94-3-2.63-4.5-5.86-4.49-9.7v-8.41c.02-3.78,1.37-7.01,4.07-9.68,2.7-2.68,5.94-4.01,9.74-4.01h2.39c3.8,0,7.04,1.36,9.73,4.05,2.69,2.69,4.03,5.93,4.03,9.71v3.94Z" fill="#000" stroke-width="0"/><path d="M240,187.92c-.39.21-.76.3-.99.3-1.48,0-2.26-.9-2.26-2.75v-6.72s-1.58,0-1.58,0l-.09-.28.62-.67h1.06s0-1.94,0-1.94c.44-.46,1.11-1.06,1.55-1.52l.35.05c-.05.97-.07,2.31-.07,3.42h2.63c.21.24.14.74-.14.95h-2.5s0,5.91,0,5.91c0,1.87.74,2.22,1.34,2.22.55,0,1.09-.21,1.41-.37l.21.6-1.53.81Z" fill="#000" stroke-width="0"/><path d="M247.35,187.95h-5.31s0-.65,0-.65c1.46-.14,1.59-.25,1.6-1.75v-4.81c0-1.52-.08-1.59-1.42-1.76v-.58c1.13-.18,2.17-.46,3.26-.94,0,.76,0,1.78,0,2.54.81-1.2,1.78-2.47,2.94-2.47.86,0,1.34.53,1.34,1.11,0,.53-.37,1.04-.79,1.27-.23.14-.42.12-.6-.05-.35-.35-.62-.58-1.04-.58-.49,0-1.34.71-1.85,1.89v4.34c0,1.52.11,1.64,1.88,1.78v.65Z" fill="#000" stroke-width="0"/><path d="M257.58,188.24c-.35,0-.85-.19-1.08-.44-.3-.3-.44-.62-.55-1.04-.92.62-2.06,1.48-2.77,1.47-1.64,0-2.82-1.37-2.81-2.85,0-1.13.63-1.87,1.9-2.31,1.41-.48,3.14-1.08,3.65-1.5v-.46c0-1.64-.83-2.59-2.03-2.59-.53,0-.86.25-1.09.53-.25.32-.42.83-.62,1.5-.12.37-.33.53-.67.53-.44,0-1.02-.46-1.01-1.02,0-.32.3-.6.76-.92.67-.48,2.01-1.34,3.33-1.61.69,0,1.41.21,1.94.63.81.69,1.18,1.48,1.17,2.68,0,1.27,0,3.19,0,4.46,0,1.06.39,1.39.81,1.39.28,0,.58-.11.83-.25l.23.65-1.97,1.15ZM255.91,182.4c-.51.25-1.62.74-2.15.97-.88.39-1.41.83-1.41,1.68,0,1.22.92,1.78,1.66,1.78.6,0,1.43-.37,1.9-.83,0-1.09,0-2.52,0-3.6Z" fill="#000" stroke-width="0"/><path d="M266.69,187.98v-.65c1.34-.14,1.48-.3,1.48-1.87v-3.81c0-1.62-.57-2.7-2.09-2.71-.95,0-1.85.55-2.57,1.2v5.41c0,1.59.13,1.64,1.49,1.78v.65s-4.99,0-4.99,0v-.65c1.53-.16,1.67-.25,1.67-1.78v-4.76c0-1.5-.15-1.57-1.4-1.78v-.6c1.13-.18,2.27-.48,3.24-.92,0,.53,0,1.27,0,1.83.46-.32.97-.67,1.57-1.06.65-.41,1.25-.69,1.92-.69,1.85,0,3,1.37,3,3.61v4.39c0,1.57.13,1.64,1.47,1.78v.65s-4.78,0-4.78,0Z" fill="#000" stroke-width="0"/><path d="M278.23,180.6c-.41-1.34-1.06-2.27-2.47-2.27-.81,0-1.48.58-1.48,1.5,0,1.02.76,1.5,2.01,2.06,1.89.83,2.98,1.58,2.98,3.17,0,2.13-1.95,3.21-3.77,3.21-1.2,0-2.26-.4-2.75-.67-.12-.67-.32-1.99-.41-2.75l.67-.11c.41,1.48,1.22,2.75,2.84,2.75.88,0,1.66-.6,1.67-1.57,0-1.04-.62-1.6-1.89-2.15-1.5-.7-2.98-1.46-2.98-3.22,0-1.69,1.48-2.98,3.66-2.97.97,0,1.8.23,2.26.3.07.55.23,2.01.34,2.56l-.67.16Z" fill="#000" stroke-width="0"/><path d="M281.72,177.86v-.62c0-1.66.58-3.37,2.04-4.62.81-.71,1.69-1.11,2.59-1.22.79.02,1.5.3,1.87.74.21.25.25.49.14.81-.07.23-.32.55-.55.74-.25.16-.44.11-.67-.05-.46-.42-1.11-.95-1.87-.95-1.71,0-1.71,2.33-1.71,4.09v1.09s2.45,0,2.45,0c.14.21.02.79-.23.95h-2.22s0,6.67,0,6.67c0,1.66.25,1.69,1.98,1.87v.65s-5.43,0-5.43,0v-.65c1.46-.14,1.62-.23,1.62-1.73v-6.81s-1.63,0-1.63,0l-.09-.25.51-.69h1.22Z" fill="#000" stroke-width="0"/><path d="M291.38,177.6c2.89,0,5.03,2.2,5.03,5.18,0,3.74-2.78,5.52-5.04,5.51-3.19,0-5.12-2.57-5.12-5.16,0-3.77,2.94-5.54,5.14-5.54ZM291.1,178.38c-1.41,0-2.68,1.36-2.69,4.04,0,2.93,1.29,5.06,3.18,5.06,1.43,0,2.64-1.04,2.64-4.2,0-2.7-1.1-4.9-3.13-4.9Z" fill="#000" stroke-width="0"/><path d="M302.83,188.03h-5.31s0-.65,0-.65c1.46-.14,1.59-.25,1.6-1.75v-4.81c0-1.52-.08-1.59-1.42-1.76v-.58c1.13-.18,2.17-.46,3.26-.94,0,.76,0,1.78,0,2.54.81-1.2,1.78-2.47,2.94-2.47.85,0,1.34.53,1.34,1.11,0,.53-.37,1.04-.79,1.27-.23.14-.42.12-.6-.05-.35-.35-.62-.58-1.04-.58-.49,0-1.34.71-1.85,1.89v4.34c0,1.52.11,1.64,1.89,1.78v.65Z" fill="#000" stroke-width="0"/><path d="M318.4,188.05v-.65c1.37-.14,1.53-.23,1.53-1.85v-3.86c0-1.64-.54-2.68-1.98-2.68-.88,0-1.69.48-2.57,1.2.02.28.07.55.07.99v4.48c0,1.46.2,1.57,1.47,1.71v.65s-4.95,0-4.95,0v-.65c1.43-.14,1.64-.23,1.64-1.75v-3.97c0-1.71-.52-2.66-1.93-2.66-.92,0-1.83.62-2.54,1.2v5.43c0,1.52.15,1.62,1.47,1.76v.65s-4.97,0-4.97,0v-.65c1.53-.14,1.67-.23,1.67-1.75v-4.78c0-1.48-.08-1.57-1.38-1.8v-.58c1.09-.16,2.17-.46,3.21-.92,0,.55,0,1.32,0,1.87.49-.37.97-.76,1.71-1.2.58-.37,1.09-.6,1.83-.6,1.11,0,2.06.7,2.52,1.9.65-.51,1.25-.9,1.83-1.29.51-.32,1.16-.6,1.83-.6,1.8,0,2.91,1.3,2.91,3.56v4.46c0,1.55.13,1.62,1.45,1.76v.65s-4.81,0-4.81,0Z" fill="#000" stroke-width="0"/><path d="M332.61,186.11c-1.48,1.85-3.1,2.24-3.84,2.24-2.82,0-4.53-2.32-4.52-4.97,0-1.57.56-3.03,1.51-4.04.97-1.08,2.24-1.68,3.44-1.68,2.01,0,3.53,1.74,3.53,3.59-.02.46-.09.67-.46.76-.46.09-3.42.29-6.17.38-.07,3.1,1.82,4.37,3.46,4.37.95,0,1.83-.39,2.68-1.17l.37.53ZM328.65,178.53c-1.06,0-2.1.99-2.43,2.86,1.29,0,2.59,0,3.95-.06.42,0,.56-.11.56-.46.02-1.22-.78-2.33-2.08-2.34Z" fill="#000" stroke-width="0"/><path d="M346.33,188.09v-.65c1.37-.14,1.53-.23,1.53-1.85v-3.86c0-1.64-.54-2.68-1.98-2.68-.88,0-1.69.48-2.57,1.2.02.28.07.55.07.99v4.48c0,1.46.2,1.57,1.47,1.71v.65s-4.94,0-4.94,0v-.65c1.43-.14,1.64-.23,1.64-1.75v-3.97c0-1.71-.52-2.66-1.93-2.66-.92,0-1.83.62-2.54,1.2v5.43c0,1.52.15,1.62,1.47,1.76v.65s-4.97,0-4.97,0v-.65c1.53-.14,1.67-.23,1.67-1.75v-4.78c0-1.48-.08-1.57-1.38-1.8v-.58c1.09-.16,2.17-.46,3.21-.92,0,.55,0,1.32,0,1.87.49-.37.97-.76,1.71-1.2.58-.37,1.09-.6,1.83-.6,1.11,0,2.06.7,2.52,1.9.65-.51,1.25-.9,1.83-1.29.51-.32,1.16-.6,1.83-.6,1.8,0,2.91,1.3,2.91,3.56v4.46c0,1.55.13,1.62,1.45,1.76v.65s-4.81,0-4.81,0Z" fill="#000" stroke-width="0"/><path d="M363.07,180.73c-.41-1.34-1.06-2.27-2.47-2.27-.81,0-1.48.58-1.48,1.5,0,1.02.76,1.5,2.01,2.06,1.89.83,2.98,1.58,2.98,3.17,0,2.13-1.95,3.21-3.77,3.21-1.2,0-2.26-.4-2.75-.67-.12-.67-.32-1.99-.41-2.75l.67-.11c.41,1.48,1.22,2.75,2.84,2.75.88,0,1.66-.6,1.67-1.57,0-1.04-.62-1.59-1.89-2.15-1.5-.7-2.98-1.46-2.98-3.22,0-1.69,1.48-2.98,3.66-2.97.97,0,1.8.23,2.26.3.07.55.23,2.01.34,2.56l-.67.16Z" fill="#000" stroke-width="0"/><path d="M370.63,177.71c2.89,0,5.03,2.2,5.03,5.18,0,3.74-2.78,5.52-5.04,5.51-3.19,0-5.12-2.57-5.12-5.16,0-3.77,2.94-5.54,5.14-5.54ZM370.36,178.5c-1.41,0-2.68,1.36-2.69,4.04,0,2.93,1.29,5.06,3.18,5.06,1.43,0,2.64-1.04,2.64-4.2,0-2.7-1.1-4.9-3.13-4.9Z" fill="#000" stroke-width="0"/><path d="M389.45,188.16v-.65c1.37-.14,1.53-.23,1.53-1.85v-3.86c0-1.64-.54-2.68-1.98-2.68-.88,0-1.69.48-2.57,1.2.02.28.07.56.07.99v4.48c0,1.46.2,1.57,1.47,1.71v.65s-4.94,0-4.94,0v-.65c1.43-.14,1.64-.23,1.64-1.75v-3.97c0-1.71-.52-2.66-1.93-2.66-.92,0-1.83.62-2.54,1.2v5.43c0,1.52.15,1.62,1.47,1.76v.65s-4.97,0-4.97,0v-.65c1.53-.14,1.67-.23,1.67-1.75v-4.78c0-1.48-.08-1.57-1.38-1.8v-.58c1.09-.16,2.17-.46,3.21-.92,0,.55,0,1.32,0,1.87.49-.37.97-.76,1.71-1.2.58-.37,1.09-.6,1.83-.6,1.11,0,2.06.7,2.52,1.9.65-.51,1.25-.9,1.83-1.29.51-.32,1.16-.6,1.83-.6,1.8,0,2.91,1.3,2.91,3.56v4.46c0,1.55.13,1.62,1.45,1.76v.65s-4.81,0-4.81,0Z" fill="#000" stroke-width="0"/><path d="M401.81,188.18v-.65c1.34-.14,1.48-.3,1.48-1.87v-3.81c0-1.62-.57-2.7-2.09-2.71-.95,0-1.85.55-2.57,1.2v5.41c0,1.59.13,1.64,1.49,1.78v.65s-4.99,0-4.99,0v-.65c1.53-.16,1.67-.25,1.67-1.78v-4.76c0-1.5-.15-1.57-1.4-1.78v-.6c1.13-.18,2.26-.48,3.24-.92,0,.53,0,1.27,0,1.83.46-.32.97-.67,1.57-1.06.65-.41,1.25-.69,1.92-.69,1.85,0,3,1.37,3,3.61v4.39c0,1.57.13,1.64,1.47,1.78v.65s-4.78,0-4.78,0Z" fill="#000" stroke-width="0"/><path d="M407.36,188.18v-.65c1.46-.14,1.62-.25,1.62-1.82v-4.76c0-1.43-.06-1.52-1.45-1.76v-.55c1.2-.21,2.29-.51,3.28-.92,0,.97,0,1.94,0,2.91v5.08c0,1.57.15,1.69,1.65,1.83v.65s-5.11,0-5.11,0ZM409.78,175.46c-.65,0-1.22-.58-1.22-1.23,0-.74.58-1.27,1.25-1.27.65,0,1.18.53,1.18,1.27,0,.65-.53,1.22-1.2,1.22Z" fill="#000" stroke-width="0"/><path d="M419.17,180.81c-.41-1.34-1.06-2.27-2.47-2.27-.81,0-1.48.58-1.48,1.5,0,1.02.76,1.5,2.01,2.06,1.89.83,2.98,1.57,2.98,3.17,0,2.13-1.95,3.21-3.77,3.21-1.2,0-2.26-.4-2.75-.67-.12-.67-.32-1.99-.41-2.75l.67-.11c.41,1.48,1.22,2.75,2.84,2.75.88,0,1.66-.6,1.67-1.57,0-1.04-.62-1.6-1.89-2.15-1.5-.7-2.98-1.46-2.98-3.22,0-1.69,1.48-2.98,3.66-2.97.97,0,1.8.23,2.26.3.07.56.23,2.01.34,2.56l-.67.16Z" fill="#000" stroke-width="0"/><path d="M434.65,186.26c-1.48,1.85-3.1,2.24-3.84,2.24-2.82,0-4.53-2.32-4.52-4.97,0-1.57.56-3.03,1.51-4.04.97-1.08,2.24-1.68,3.44-1.68,2.01,0,3.53,1.74,3.53,3.59-.02.46-.09.67-.46.76-.46.09-3.42.29-6.17.38-.07,3.1,1.82,4.37,3.46,4.37.95,0,1.83-.39,2.68-1.17l.37.53ZM430.69,178.68c-1.06,0-2.1.99-2.43,2.86,1.29,0,2.59,0,3.95-.06.42,0,.56-.11.56-.46.02-1.22-.78-2.33-2.08-2.34Z" fill="#000" stroke-width="0"/><path d="M442.32,188.23v-.65c1.34-.14,1.48-.3,1.48-1.87v-3.81c0-1.62-.57-2.7-2.09-2.71-.95,0-1.85.55-2.57,1.2v5.41c0,1.59.13,1.64,1.49,1.78v.65s-4.99,0-4.99,0v-.65c1.53-.16,1.67-.25,1.67-1.78v-4.76c0-1.5-.15-1.57-1.4-1.78v-.6c1.13-.18,2.26-.48,3.24-.92,0,.53,0,1.27,0,1.83.46-.32.97-.67,1.57-1.06.65-.41,1.25-.69,1.92-.69,1.85,0,3,1.37,3,3.61v4.39c0,1.57.13,1.64,1.47,1.78v.65s-4.78,0-4.78,0Z" fill="#000" stroke-width="0"/><path d="M458.24,188.26h-5.31s0-.65,0-.65c1.46-.14,1.59-.25,1.6-1.75v-4.81c0-1.52-.08-1.59-1.42-1.76v-.58c1.13-.18,2.17-.46,3.26-.94,0,.76,0,1.78,0,2.54.81-1.2,1.78-2.47,2.94-2.47.85,0,1.34.53,1.34,1.11,0,.53-.37,1.04-.79,1.27-.23.14-.42.12-.6-.05-.35-.35-.62-.58-1.04-.58-.49,0-1.34.71-1.85,1.89v4.34c0,1.52.11,1.64,1.89,1.78v.65Z" fill="#000" stroke-width="0"/><path d="M469.33,186.31c-1.48,1.85-3.1,2.24-3.84,2.24-2.82,0-4.53-2.32-4.52-4.97,0-1.57.56-3.03,1.51-4.04.97-1.08,2.24-1.68,3.44-1.68,2.01,0,3.53,1.74,3.53,3.59-.02.46-.09.67-.46.76-.46.09-3.42.3-6.17.38-.07,3.1,1.82,4.37,3.46,4.37.95,0,1.83-.39,2.68-1.17l.37.53ZM465.37,178.73c-1.06,0-2.1.99-2.43,2.86,1.29,0,2.59,0,3.95-.06.42,0,.56-.11.56-.46.02-1.22-.78-2.33-2.08-2.34Z" fill="#000" stroke-width="0"/><path d="M477.92,188.56c-.35,0-.85-.19-1.08-.44-.3-.3-.44-.62-.55-1.04-.93.62-2.06,1.48-2.77,1.47-1.64,0-2.82-1.37-2.81-2.85,0-1.13.63-1.87,1.9-2.31,1.41-.48,3.14-1.08,3.65-1.5v-.46c0-1.64-.83-2.59-2.03-2.59-.53,0-.86.25-1.09.53-.25.32-.42.83-.63,1.5-.12.37-.32.53-.67.53-.44,0-1.02-.46-1.02-1.02,0-.32.3-.6.76-.92.67-.48,2.01-1.34,3.33-1.61.69,0,1.41.21,1.94.63.81.69,1.18,1.48,1.17,2.68,0,1.27,0,3.19,0,4.46,0,1.06.39,1.39.81,1.39.28,0,.58-.12.83-.25l.23.65-1.97,1.15ZM476.24,182.72c-.51.25-1.62.74-2.15.97-.88.39-1.41.83-1.41,1.68,0,1.22.92,1.78,1.66,1.78.6,0,1.43-.37,1.89-.83,0-1.09,0-2.52,0-3.6Z" fill="#000" stroke-width="0"/><path d="M480.05,188.29v-.65c1.48-.14,1.67-.25,1.67-1.78l.02-11.07c0-1.41-.11-1.55-1.59-1.73v-.6c1.25-.14,2.68-.5,3.42-.78,0,1.09,0,2.19,0,3.28l-.02,10.9c0,1.52.14,1.64,1.64,1.78v.65s-5.13,0-5.13,0Z" fill="#000" stroke-width="0"/><path d="M485.92,188.3v-.65c1.46-.14,1.62-.25,1.62-1.82v-4.76c0-1.43-.06-1.52-1.45-1.76v-.55c1.2-.21,2.29-.5,3.28-.92,0,.97,0,1.94,0,2.91v5.08c0,1.57.15,1.69,1.65,1.83v.65s-5.11,0-5.11,0ZM488.34,175.57c-.65,0-1.22-.58-1.22-1.23,0-.74.58-1.27,1.25-1.27.65,0,1.18.53,1.18,1.27,0,.65-.53,1.22-1.2,1.22Z" fill="#000" stroke-width="0"/><path d="M496.15,188.29c-.39.21-.76.3-.99.3-1.48,0-2.26-.9-2.26-2.75v-6.72s-1.58,0-1.58,0l-.09-.28.62-.67h1.06s0-1.94,0-1.94c.44-.46,1.11-1.06,1.55-1.52l.35.05c-.05.97-.07,2.31-.07,3.42h2.63c.21.24.14.74-.14.95h-2.49s0,5.91,0,5.91c0,1.87.74,2.22,1.34,2.22.55,0,1.09-.21,1.41-.37l.21.6-1.53.81Z" fill="#000" stroke-width="0"/><path d="M505.6,188.6c-.35,0-.85-.19-1.08-.44-.3-.3-.44-.62-.55-1.04-.93.62-2.06,1.48-2.77,1.47-1.64,0-2.82-1.37-2.81-2.85,0-1.13.63-1.87,1.9-2.31,1.41-.48,3.14-1.08,3.65-1.5v-.46c0-1.64-.83-2.59-2.03-2.59-.53,0-.86.25-1.09.53-.25.32-.42.83-.63,1.5-.12.37-.32.53-.67.53-.44,0-1.02-.46-1.02-1.02,0-.32.3-.6.76-.92.67-.48,2.01-1.34,3.33-1.61.69,0,1.41.21,1.94.63.81.69,1.18,1.48,1.17,2.68,0,1.27,0,3.19,0,4.46,0,1.06.39,1.39.81,1.39.28,0,.58-.12.83-.25l.23.65-1.97,1.15ZM503.92,182.76c-.51.25-1.62.74-2.15.97-.88.39-1.41.83-1.41,1.68,0,1.22.92,1.78,1.66,1.78.6,0,1.43-.37,1.89-.83,0-1.09,0-2.52,0-3.6Z" fill="#000" stroke-width="0"/><path d="M512.42,188.31c-.39.21-.76.3-.99.3-1.48,0-2.26-.9-2.26-2.75v-6.72s-1.58,0-1.58,0l-.09-.28.62-.67h1.06s0-1.94,0-1.94c.44-.46,1.11-1.06,1.55-1.52l.35.05c-.05.97-.07,2.31-.07,3.42h2.63c.21.23.14.74-.14.95h-2.49s0,5.91,0,5.91c0,1.87.74,2.22,1.34,2.22.55,0,1.08-.21,1.41-.37l.21.6-1.53.81Z" fill="#000" stroke-width="0"/><path d="M520.54,180.96c-.41-1.34-1.06-2.27-2.47-2.27-.81,0-1.48.58-1.48,1.5,0,1.02.76,1.5,2.01,2.06,1.89.83,2.98,1.58,2.98,3.17,0,2.13-1.95,3.21-3.77,3.21-1.2,0-2.26-.4-2.75-.67-.12-.67-.32-1.99-.41-2.75l.67-.11c.41,1.48,1.22,2.75,2.84,2.75.88,0,1.66-.6,1.67-1.57,0-1.04-.62-1.6-1.89-2.15-1.5-.7-2.98-1.46-2.98-3.22,0-1.69,1.48-2.98,3.66-2.97.97,0,1.8.23,2.26.3.07.56.23,2.01.34,2.56l-.67.16Z" fill="#000" stroke-width="0"/><path d="M104.07,0c57.39,0,104.07,46.69,104.07,104.07s-46.69,104.07-104.07,104.07S0,161.46,0,104.07,46.69,0,104.07,0ZM104.07,199.52c52.63,0,95.44-42.82,95.44-95.44S156.7,8.63,104.07,8.63,8.63,51.45,8.63,104.07s42.82,95.44,95.44,95.44Z" fill="#003d6b" stroke-width="0"/><path d="M104.07,8.63C51.45,8.63,8.63,51.45,8.63,104.07s42.82,95.44,95.44,95.44v8.63C46.69,208.15,0,161.46,0,104.07S46.69,0,104.07,0v8.63Z" fill="#d62828" stroke-width="0"/><path d="M81.65,100.69c3.97,1.94,7.04,4.62,9.21,8.02,2.16,3.4,3.25,7.22,3.25,11.46,0,4.68-1.15,8.92-3.45,12.72-2.3,3.8-5.46,6.78-9.47,8.95-4.02,2.17-8.5,3.25-13.45,3.25-2.92,0-6.1-.13-9.54-.4-1.24-.09-2.7-.18-4.37-.27-1.68-.09-3.54-.13-5.57-.13l-9.01.13c-1.59.09-3.84.13-6.76.13-.18,0-.27-.27-.27-.79s.09-.79.27-.79c3.36,0,5.83-.24,7.42-.73,1.59-.49,2.69-1.35,3.31-2.58.62-1.24.93-3.18.93-5.83v-61.35c0-2.65-.29-4.59-.86-5.83-.58-1.24-1.66-2.1-3.25-2.58-1.59-.48-4.02-.73-7.29-.73-.26,0-.4-.26-.4-.79s.13-.79.4-.79l6.49.13c3.71.18,6.71.26,9.01.26,1.59,0,3.07-.04,4.44-.13,1.37-.09,2.54-.18,3.51-.26,2.83-.26,5.39-.4,7.69-.4,7.42,0,12.99,1.61,16.7,4.84,3.71,3.23,5.57,7.44,5.57,12.66s-1.79,9.21-5.37,12.79c-3.58,3.58-8.33,6.12-14.25,7.62l1.46-1.46c5.12,0,9.67.97,13.65,2.92ZM55.81,63.86c-1.06.35-1.86,1.19-2.38,2.52-.53,1.33-.8,3.45-.8,6.36v25.97l-4.24-1.06c3.8.27,7.2.4,10.2.4,6.45,0,11.22-1.66,14.31-4.97,3.09-3.31,4.64-7.71,4.64-13.19,0-4.95-1.35-8.94-4.04-11.99-2.7-3.05-6.87-4.57-12.52-4.57-2.38,0-4.11.18-5.17.53ZM80.12,137.73c3.13-3.31,4.7-8.06,4.7-14.25,0-6.71-1.97-12.15-5.9-16.3-3.93-4.15-9.34-6.27-16.23-6.36-5.04-.18-9.67.05-13.91.66l3.84-1.46v33.79c0,2.3.33,4.06.99,5.3.66,1.24,1.94,2.14,3.84,2.72,1.9.58,4.66.86,8.28.86,6.45,0,11.24-1.66,14.38-4.97Z" fill="#000" stroke-width="0"/><path d="M104.97,150.58c2.52-2.42,4.34-4.58,5.44-6.47,1.1-1.89,1.66-3.79,1.66-5.68,0-2.1-.64-3.83-1.93-5.17-1.29-1.34-2.96-2.01-5.01-2.01-4.16,0-7.15,3.26-9,9.79,0,.05-.11.08-.32.08-.47,0-.68-.1-.63-.32l3.08-11.99c0-.1.1-.16.32-.16.16,0,.3.04.43.12.13.08.17.15.12.2-.05.21-.08.5-.08.87,0,.84.39,1.26,1.18,1.26.47,0,1.26-.18,2.37-.55,2.16-.68,4.08-1.03,5.76-1.03,2.68,0,4.8.72,6.35,2.17,1.55,1.45,2.33,3.33,2.33,5.64,0,1.89-.59,3.76-1.78,5.6-1.18,1.84-2.92,3.8-5.21,5.88-2.29,2.08-5.48,4.67-9.59,7.77-.21.16-.28.29-.2.39.08.11.25.16.51.16,5.79,0,9.81-.08,12.07-.24,2.26-.16,3.89-.58,4.89-1.26,1-.68,1.68-1.89,2.05-3.63.05-.1.22-.14.51-.12.29.03.43.09.43.2l-1.18,8.05c0,.21-.07.41-.2.59-.13.19-.3.28-.51.28h-24.07c-.26,0-.47-.14-.63-.43-.16-.29-.13-.54.08-.75,4.63-3.73,8.21-6.81,10.73-9.23Z" fill="#000" stroke-width="0"/><path d="M115.35,91.33c1.99-8.86,5.97-16.18,11.93-21.95,5.96-5.77,13.53-8.66,22.7-8.66,8.56,0,15.76,2.41,21.62,7.22,5.85,4.81,9.8,11.62,11.84,20.4,2,8.64,1.98,17.37-.06,26.19-2.04,8.83-6.06,16.13-12.06,21.9-6,5.77-13.55,8.66-22.64,8.66-8.48,0-15.65-2.41-21.51-7.22-5.86-4.81-9.79-11.58-11.81-20.29-2-8.64-2.01-17.39-.01-26.25ZM134.66,71.04c-4.11,5.5-6.8,12.63-8.05,21.38-1.26,8.75-.84,17.64,1.25,26.65,1.72,7.41,4.52,13.26,8.42,17.54,3.9,4.28,8.21,6.42,12.95,6.42,5.73,0,10.65-2.75,14.77-8.25,4.11-5.5,6.8-12.63,8.06-21.38,1.26-8.75.84-17.63-1.25-26.65-1.72-7.41-4.53-13.26-8.42-17.54-3.9-4.28-8.21-6.42-12.95-6.42-5.73,0-10.65,2.75-14.77,8.25Z" fill="#000" stroke-width="0"/></g></svg>